HIERARCHY
ROOT root
{
	OFFSET	0	13.1	24.9
	CHANNELS 6  Xposition Yposition Zposition Xrotation Yrotation Zrotation
	JOINT spine_1
	{
		OFFSET	0	9.99999	0
		CHANNELS 3  Xrotation Yrotation Zrotation
		JOINT spine_2
		{
			OFFSET	0	112	-10
			CHANNELS 3  Xrotation Yrotation Zrotation
			JOINT spine_3
			{
				OFFSET	0	206.5	19.3
				CHANNELS 3  Xrotation Yrotation Zrotation
				JOINT spine_4
				{
					OFFSET	0	110.4	14.6
					CHANNELS 3  Xrotation Yrotation Zrotation
					JOINT neck_1
					{
						OFFSET	0	71.8	-50.3
						CHANNELS 3  Xrotation Yrotation Zrotation
						JOINT neck_2
						{
							OFFSET	0	86.2	-25.8
							CHANNELS 3  Xrotation Yrotation Zrotation
							JOINT head_ee
							{
								OFFSET	0	179.8	-8.7
								CHANNELS 3  Xrotation Yrotation Zrotation
								End Site
								{
									OFFSET	1	0	0
								}
							}
						}
					}
					JOINT left_clavicle
					{
						OFFSET	-43.2	22.4	-70.8
						CHANNELS 3  Xrotation Yrotation Zrotation
						JOINT left_shoulder
						{
							OFFSET	-93.9	-5.79999	48.7
							CHANNELS 3  Xrotation Yrotation Zrotation
							JOINT left_elbow
							{
								OFFSET	-291.4	-30.8	15.2
								CHANNELS 3  Xrotation Yrotation Zrotation
								JOINT left_lowarm_twist
								{
									OFFSET	-110.7	-3.89999	13.6
									CHANNELS 3  Xrotation Yrotation Zrotation
									JOINT left_hand
									{
										OFFSET	-110.7	-3.89999	13.6
										CHANNELS 3  Xrotation Yrotation Zrotation
										JOINT left_ee
										{
											OFFSET	-80.8	-5.10001	12.1
											CHANNELS 3  Xrotation Yrotation Zrotation
											End Site
											{
												OFFSET	1	0	0
											}
										}
									}
								}
							}
						}
					}
					JOINT right_clavicle
					{
						OFFSET	43.2	22.4	-70.8
						CHANNELS 3  Xrotation Yrotation Zrotation
						JOINT right_shoulder
						{
							OFFSET	93.9	-5.79999	48.7
							CHANNELS 3  Xrotation Yrotation Zrotation
							JOINT right_elbow
							{
								OFFSET	291.4	-30.8	15.2
								CHANNELS 3  Xrotation Yrotation Zrotation
								JOINT right_lowarm_twist
								{
									OFFSET	110.7	-3.89999	13.6
									CHANNELS 3  Xrotation Yrotation Zrotation
									JOINT right_hand
									{
										OFFSET	110.7	-3.89999	13.6
										CHANNELS 3  Xrotation Yrotation Zrotation
										JOINT right_ee
										{
											OFFSET	80.8	-5.10001	12.1
											CHANNELS 3  Xrotation Yrotation Zrotation
											End Site
											{
												OFFSET	1	0	0
											}
										}
									}
								}
							}
						}
					}
				}
			}
		}
	}
	JOINT left_hip
	{
		OFFSET	-82.8	-127.5	0.300001
		CHANNELS 3  Xrotation Yrotation Zrotation
		JOINT left_knee
		{
			OFFSET	-28.2	-396.7	2.2
			CHANNELS 3  Xrotation Yrotation Zrotation
			JOINT left_ankle
			{
				OFFSET	-11.7	-411.3	35.4
				CHANNELS 3  Xrotation Yrotation Zrotation
				JOINT left_toes
				{
					OFFSET	0	-60	-88.6
					CHANNELS 3  Xrotation Yrotation Zrotation
					JOINT left_foot_ee
					{
						OFFSET	-22.5	-16.5	-42.2
						CHANNELS 3  Xrotation Yrotation Zrotation
						End Site
						{
							OFFSET	1	0	0
						}
					}
				}
			}
		}
	}
	JOINT right_hip
	{
		OFFSET	82.8	-127.5	0.300001
		CHANNELS 3  Xrotation Yrotation Zrotation
		JOINT right_knee
		{
			OFFSET	28.2	-396.7	2.2
			CHANNELS 3  Xrotation Yrotation Zrotation
			JOINT right_ankle
			{
				OFFSET	11.7	-411.3	35.4
				CHANNELS 3  Xrotation Yrotation Zrotation
				JOINT right_toes
				{
					OFFSET	0	-60	-88.6
					CHANNELS 3  Xrotation Yrotation Zrotation
					JOINT right_foot_ee
					{
						OFFSET	22.5	-16.5	-42.2
						CHANNELS 3  Xrotation Yrotation Zrotation
						End Site
						{
							OFFSET	1	0	0
						}
					}
				}
			}
		}
	}
}
MOTION
Frames: 12
Frame Time: 0.02
3574.42 741.953 -1474.73 -98.8829054873 75.5986652676 93.3532039584 6.07249 0.513759 3.99209 6.08131 0.2589 4.01664 6.08923 -0.16548 4.02156 6.06697 0.47121 3.99733 -11.952 8.44012 -3.66856 -12.0926 18.3569 -1.12492 -0.0 0.0 -0.0 -9.34647 18.8908 -12.1623 -9.68715 -48.5454 65.2222 0.900394 -24.0379 0.1917 -23.8047 -1.4155 2.67245 3.56855 -12.6064 18.9951 -0.0 0.0 -0.0 5.91948 -6.12773 -11.5019 -25.7249 39.2167 -70.5676 1.56481 37.7788 -0.53546 36.7802 0.19247 4.61481 -2.1942 -27.5 1.23879 0.0 0.0 0.0 3.52471 16.5568 10.4472 6.30579 -0.310533 -0.917029 24.1702 -9.08801 -3.36074 0.663686 -0.0 -0.0 -0.0 0.0 -0.0 24.0231 27.3356 -2.61191 -13.8532 -0.318213 -2.09697 34.8339 -20.7154 4.53833 10.4285 -0.0 -0.0 0.0 0.0 0.0 
3574.42 741.953 -1474.73 -96.2319504923 75.6886988995 90.6168306023 6.07249 0.513759 3.99209 6.08131 0.2589 4.01664 6.08923 -0.16548 4.02156 6.06697 0.47121 3.99733 -11.952 8.44012 -3.66856 -12.0926 18.3569 -1.12492 -0.0 0.0 -0.0 -9.34647 18.8908 -12.1623 -9.68715 -48.5454 65.2222 0.900394 -24.0379 0.1917 -23.8047 -1.4155 2.67245 3.56855 -12.6064 18.9951 -0.0 0.0 -0.0 5.91948 -6.12773 -11.5019 -25.7249 39.2167 -70.5676 1.56481 37.7788 -0.53546 36.7802 0.19247 4.61481 -2.1942 -27.5 1.23879 0.0 0.0 0.0 3.52471 16.5568 10.4472 6.30579 -0.310533 -0.917029 24.1702 -9.08801 -3.36074 0.663686 -0.0 -0.0 -0.0 0.0 -0.0 24.0231 27.3356 -2.61191 -13.8532 -0.318213 -2.09697 34.8339 -20.7154 4.53833 10.4285 -0.0 -0.0 0.0 0.0 0.0 
3574.42 741.953 -1474.73 -92.9195446459 75.7561799475 87.1989137903 6.07249 0.513759 3.99209 6.08131 0.2589 4.01664 6.08923 -0.16548 4.02156 6.06697 0.47121 3.99733 -11.952 8.44012 -3.66856 -12.0926 18.3569 -1.12492 -0.0 0.0 -0.0 -9.34647 18.8908 -12.1623 -9.68715 -48.5454 65.2222 0.900394 -24.0379 0.1917 -23.8047 -1.4155 2.67245 3.56855 -12.6064 18.9951 -0.0 0.0 -0.0 5.91948 -6.12773 -11.5019 -25.7249 39.2167 -70.5676 1.56481 37.7788 -0.53546 36.7802 0.19247 4.61481 -2.1942 -27.5 1.23879 0.0 0.0 0.0 3.52471 16.5568 10.4472 6.30579 -0.310533 -0.917029 24.1702 -9.08801 -3.36074 0.663686 -0.0 -0.0 -0.0 0.0 -0.0 24.0231 27.3356 -2.61191 -13.8532 -0.318213 -2.09697 34.8339 -20.7154 4.53833 10.4285 -0.0 -0.0 0.0 0.0 0.0 
3574.42 741.953 -1474.73 -88.6920058492 75.7712719453 82.837560644 6.07249 0.513759 3.99209 6.08131 0.2589 4.01664 6.08923 -0.16548 4.02156 6.06697 0.47121 3.99733 -11.952 8.44012 -3.66856 -12.0926 18.3569 -1.12492 -0.0 0.0 -0.0 -9.34647 18.8908 -12.1623 -9.68715 -48.5454 65.2222 0.900394 -24.0379 0.1917 -23.8047 -1.4155 2.67245 3.56855 -12.6064 18.9951 -0.0 0.0 -0.0 5.91948 -6.12773 -11.5019 -25.7249 39.2167 -70.5676 1.56481 37.7788 -0.53546 36.7802 0.19247 4.61481 -2.1942 -27.5 1.23879 0.0 0.0 0.0 3.52471 16.5568 10.4472 6.30579 -0.310533 -0.917029 24.1702 -9.08801 -3.36074 0.663686 -0.0 -0.0 -0.0 0.0 -0.0 24.0231 27.3356 -2.61191 -13.8532 -0.318213 -2.09697 34.8339 -20.7154 4.53833 10.4285 -0.0 -0.0 0.0 0.0 0.0 
3574.42 741.953 -1474.73 -84.7311927129 75.7134199753 78.7509748938 6.07249 0.513759 3.99209 6.08131 0.2589 4.01664 6.08923 -0.16548 4.02156 6.06697 0.47121 3.99733 -11.952 8.44012 -3.66856 -12.0926 18.3569 -1.12492 -0.0 0.0 -0.0 -9.34647 18.8908 -12.1623 -9.68715 -48.5454 65.2222 0.900394 -24.0379 0.1917 -23.8047 -1.4155 2.67245 3.56855 -12.6064 18.9951 -0.0 0.0 -0.0 5.91948 -6.12773 -11.5019 -25.7249 39.2167 -70.5676 1.56481 37.7788 -0.53546 36.7802 0.19247 4.61481 -2.1942 -27.5 1.23879 0.0 0.0 0.0 3.52471 16.5568 10.4472 6.30579 -0.310533 -0.917029 24.1702 -9.08801 -3.36074 0.663686 -0.0 -0.0 -0.0 0.0 -0.0 24.0231 27.3356 -2.61191 -13.8532 -0.318213 -2.09697 34.8339 -20.7154 4.53833 10.4285 -0.0 -0.0 0.0 0.0 0.0 
3574.42 741.953 -1474.73 -79.3589588351 75.5207684608 73.2051874121 6.07249 0.513759 3.99209 6.08131 0.2589 4.01664 6.08923 -0.16548 4.02156 6.06697 0.47121 3.99733 -11.952 8.44012 -3.66856 -12.0926 18.3569 -1.12492 -0.0 0.0 -0.0 -9.34647 18.8908 -12.1623 -9.68715 -48.5454 65.2222 0.900394 -24.0379 0.1917 -23.8047 -1.4155 2.67245 3.56855 -12.6064 18.9951 -0.0 0.0 -0.0 5.91948 -6.12773 -11.5019 -25.7249 39.2167 -70.5676 1.56481 37.7788 -0.53546 36.7802 0.19247 4.61481 -2.1942 -27.5 1.23879 0.0 0.0 0.0 3.52471 16.5568 10.4472 6.30579 -0.310533 -0.917029 24.1702 -9.08801 -3.36074 0.663686 -0.0 -0.0 -0.0 0.0 -0.0 24.0231 27.3356 -2.61191 -13.8532 -0.318213 -2.09697 34.8339 -20.7154 4.53833 10.4285 -0.0 -0.0 0.0 0.0 0.0 
3574.42 741.953 -1474.73 -73.874932164 75.1794291105 67.5372005602 6.07249 0.513759 3.99209 6.08131 0.2589 4.01664 6.08923 -0.16548 4.02156 6.06697 0.47121 3.99733 -11.952 8.44012 -3.66856 -12.0926 18.3569 -1.12492 -0.0 0.0 -0.0 -9.34647 18.8908 -12.1623 -9.68715 -48.5454 65.2222 0.900394 -24.0379 0.1917 -23.8047 -1.4155 2.67245 3.56855 -12.6064 18.9951 -0.0 0.0 -0.0 5.91948 -6.12773 -11.5019 -25.7249 39.2167 -70.5676 1.56481 37.7788 -0.53546 36.7802 0.19247 4.61481 -2.1942 -27.5 1.23879 0.0 0.0 0.0 3.52471 16.5568 10.4472 6.30579 -0.310533 -0.917029 24.1702 -9.08801 -3.36074 0.663686 -0.0 -0.0 -0.0 0.0 -0.0 24.0231 27.3356 -2.61191 -13.8532 -0.318213 -2.09697 34.8339 -20.7154 4.53833 10.4285 -0.0 -0.0 0.0 0.0 0.0 
3574.42 741.953 -1474.73 -66.6302833965 74.4731781134 60.0317332979 6.07249 0.513759 3.99209 6.08131 0.2589 4.01664 6.08923 -0.16548 4.02156 6.06697 0.47121 3.99733 -11.952 8.44012 -3.66856 -12.0926 18.3569 -1.12492 -0.0 0.0 -0.0 -9.34647 18.8908 -12.1623 -9.68715 -48.5454 65.2222 0.900394 -24.0379 0.1917 -23.8047 -1.4155 2.67245 3.56855 -12.6064 18.9951 -0.0 0.0 -0.0 5.91948 -6.12773 -11.5019 -25.7249 39.2167 -70.5676 1.56481 37.7788 -0.53546 36.7802 0.19247 4.61481 -2.1942 -27.5 1.23879 0.0 0.0 0.0 3.52471 16.5568 10.4472 6.30579 -0.310533 -0.917029 24.1702 -9.08801 -3.36074 0.663686 -0.0 -0.0 -0.0 0.0 -0.0 24.0231 27.3356 -2.61191 -13.8532 -0.318213 -2.09697 34.8339 -20.7154 4.53833 10.4285 -0.0 -0.0 0.0 0.0 0.0 
3574.42 741.953 -1474.73 -59.4752988213 73.4253668307 52.5876242437 6.07249 0.513759 3.99209 6.08131 0.2589 4.01664 6.08923 -0.16548 4.02156 6.06697 0.47121 3.99733 -11.952 8.44012 -3.66856 -12.0926 18.3569 -1.12492 -0.0 0.0 -0.0 -9.34647 18.8908 -12.1623 -9.68715 -48.5454 65.2222 0.900394 -24.0379 0.1917 -23.8047 -1.4155 2.67245 3.56855 -12.6064 18.9951 -0.0 0.0 -0.0 5.91948 -6.12773 -11.5019 -25.7249 39.2167 -70.5676 1.56481 37.7788 -0.53546 36.7802 0.19247 4.61481 -2.1942 -27.5 1.23879 0.0 0.0 0.0 3.52471 16.5568 10.4472 6.30579 -0.310533 -0.917029 24.1702 -9.08801 -3.36074 0.663686 -0.0 -0.0 -0.0 0.0 -0.0 24.0231 27.3356 -2.61191 -13.8532 -0.318213 -2.09697 34.8339 -20.7154 4.53833 10.4285 -0.0 -0.0 0.0 0.0 0.0 
3574.42 741.953 -1474.73 -51.1881700033 71.6175935006 43.9019313127 6.07249 0.513759 3.99209 6.08131 0.2589 4.01664 6.08923 -0.16548 4.02156 6.06697 0.47121 3.99733 -11.952 8.44012 -3.66856 -12.0926 18.3569 -1.12492 -0.0 0.0 -0.0 -9.34647 18.8908 -12.1623 -9.68715 -48.5454 65.2222 0.900394 -24.0379 0.1917 -23.8047 -1.4155 2.67245 3.56855 -12.6064 18.9951 -0.0 0.0 -0.0 5.91948 -6.12773 -11.5019 -25.7249 39.2167 -70.5676 1.56481 37.7788 -0.53546 36.7802 0.19247 4.61481 -2.1942 -27.5 1.23879 0.0 0.0 0.0 3.52471 16.5568 10.4472 6.30579 -0.310533 -0.917029 24.1702 -9.08801 -3.36074 0.663686 -0.0 -0.0 -0.0 0.0 -0.0 24.0231 27.3356 -2.61191 -13.8532 -0.318213 -2.09697 34.8339 -20.7154 4.53833 10.4285 -0.0 -0.0 0.0 0.0 0.0 
3570.20436398 741.671 -1476.92201117 -40.8057138689 67.7388263839 32.9459878084 6.07916 0.47575 3.90188 6.0876 0.226695 3.9242 6.09335 -0.187548 3.92626 6.0721 0.434401 3.90669 -10.9524 8.2435 -4.51299 -11.0339 18.5445 -2.16826 -0.0 0.0 -0.0 -9.17513 18.741 -11.9421 -10.1979 -48.5517 64.9607 0.869728 -23.308 0.179387 -23.3998 -1.38244 2.63248 3.69623 -12.7958 19.8107 -0.0 0.0 -0.0 5.8867 -6.17477 -11.4411 -26.1655 38.6588 -70.4185 1.58778 38.1836 -0.549593 37.1225 0.208119 4.65568 -2.16366 -28.2082 0.721864 0.0 0.0 0.0 3.40862 16.9206 10.3791 6.46169 -0.319484 -0.939253 25.4343 -9.20306 -3.51322 -0.665193 0.0 0.0 -0.0 0.0 -0.0 24.0311 26.9867 -2.54811 -14.3271 -0.320072 -2.16966 37.547 -19.5676 4.78619 10.859 -0.0 -0.0 0.0 0.0 0.0 
3568.24086167 741.323 -1478.22903552 -34.6707430008 63.9065454538 26.1900332432 6.09203 0.458882 3.89093 6.10042 0.210556 3.9122 6.10505 -0.201571 3.91268 6.08393 0.418414 3.89549 -10.6776 7.9032 -5.06504 -10.727 18.2725 -2.84577 -0.0 0.0 -0.0 -9.17359 18.6993 -11.9555 -10.759 -49.6545 64.5821 0.883835 -23.6448 0.185007 -23.1027 -1.35835 2.60299 3.91797 -13.3487 21.1228 -0.0 0.0 -0.0 5.98677 -6.23913 -11.6258 -26.5098 38.6961 -70.1387 1.56617 37.8028 -0.536292 37.2068 0.21201 4.66573 -2.34241 -28.5116 1.53518 0.0 0.0 0.0 3.2203 16.626 10.3184 6.5554 -0.324894 -0.9526 24.5939 -9.34499 -3.41587 -2.98113 0.0 0.0 -0.0 0.0 -0.0 24.1209 26.6238 -2.708 -14.594 -0.320853 -2.2106 37.943 -19.905 4.83184 10.5435 -0.0 -0.0 0.0 0.0 0.0 
